<mxfile host="app.diagrams.net" agent="Mozilla/5.0 (Windows NT 10.0; Win64; x64; rv:128.0) Gecko/20100101 Firefox/128.0" version="24.7.6">
  <diagram name="Page-1" id="k2be266rmxjiTwdxTnaL">
    <mxGraphModel dx="1050" dy="558" grid="1" gridSize="10" guides="1" tooltips="1" connect="1" arrows="1" fold="1" page="1" pageScale="1" pageWidth="850" pageHeight="1100" math="0" shadow="0">
      <root>
        <mxCell id="0" />
        <mxCell id="1" parent="0" />
        <mxCell id="hZMMzGKFG94WbE2pVPfX-7" style="edgeStyle=orthogonalEdgeStyle;rounded=0;orthogonalLoop=1;jettySize=auto;html=1;entryX=0.5;entryY=0;entryDx=0;entryDy=0;" edge="1" parent="1" source="hZMMzGKFG94WbE2pVPfX-1" target="hZMMzGKFG94WbE2pVPfX-2">
          <mxGeometry relative="1" as="geometry" />
        </mxCell>
        <mxCell id="hZMMzGKFG94WbE2pVPfX-1" value="&lt;div&gt;web app&lt;/div&gt;" style="rounded=0;whiteSpace=wrap;html=1;fillColor=#fff2cc;strokeColor=#d6b656;" vertex="1" parent="1">
          <mxGeometry x="160" y="60" width="150" height="40" as="geometry" />
        </mxCell>
        <mxCell id="hZMMzGKFG94WbE2pVPfX-5" style="edgeStyle=orthogonalEdgeStyle;rounded=0;orthogonalLoop=1;jettySize=auto;html=1;" edge="1" parent="1" source="hZMMzGKFG94WbE2pVPfX-2">
          <mxGeometry relative="1" as="geometry">
            <mxPoint x="235" y="250" as="targetPoint" />
          </mxGeometry>
        </mxCell>
        <mxCell id="hZMMzGKFG94WbE2pVPfX-6" style="edgeStyle=orthogonalEdgeStyle;rounded=0;orthogonalLoop=1;jettySize=auto;html=1;entryX=1;entryY=0.5;entryDx=0;entryDy=0;entryPerimeter=0;" edge="1" parent="1" source="hZMMzGKFG94WbE2pVPfX-2" target="hZMMzGKFG94WbE2pVPfX-3">
          <mxGeometry relative="1" as="geometry">
            <mxPoint x="130" y="185" as="targetPoint" />
          </mxGeometry>
        </mxCell>
        <mxCell id="hZMMzGKFG94WbE2pVPfX-2" value="server" style="rounded=0;whiteSpace=wrap;html=1;fillColor=#dae8fc;strokeColor=#6c8ebf;" vertex="1" parent="1">
          <mxGeometry x="160" y="160" width="150" height="50" as="geometry" />
        </mxCell>
        <mxCell id="hZMMzGKFG94WbE2pVPfX-3" value="&lt;div&gt;DB&lt;/div&gt;" style="shape=cylinder3;whiteSpace=wrap;html=1;boundedLbl=1;backgroundOutline=1;size=15;fillColor=#f8cecc;strokeColor=#b85450;" vertex="1" parent="1">
          <mxGeometry x="40" y="145" width="60" height="80" as="geometry" />
        </mxCell>
        <mxCell id="hZMMzGKFG94WbE2pVPfX-4" value="Object Storage" style="shape=cylinder3;whiteSpace=wrap;html=1;boundedLbl=1;backgroundOutline=1;size=15;fillColor=#d5e8d4;strokeColor=#82b366;" vertex="1" parent="1">
          <mxGeometry x="205" y="260" width="60" height="80" as="geometry" />
        </mxCell>
      </root>
    </mxGraphModel>
  </diagram>
</mxfile>
